<svg width="336" height="60" viewBox="0 0 336 60" fill="none" xmlns="http://www.w3.org/2000/svg">
<path d="M0 59.5411C0 41.3157 14.7746 26.5411 33 26.5411H318C318 44.7665 303.225 59.5411 285 59.5411H0Z" fill="url(#paint0_linear_96_2)"/>
<path d="M320.354 26.8947C320.549 26.6994 320.549 26.3828 320.354 26.1876L317.172 23.0056C316.976 22.8103 316.66 22.8103 316.464 23.0056C316.269 23.2009 316.269 23.5174 316.464 23.7127L319.293 26.5411L316.464 29.3695C316.269 29.5648 316.269 29.8814 316.464 30.0767C316.66 30.2719 316.976 30.2719 317.172 30.0767L320.354 26.8947ZM29 27.0411H320V26.0411H29V27.0411Z" fill="black"/>
<path d="M325.688 34.1594C327.134 32.6768 327.104 30.3026 325.622 28.8565L301.46 5.29179C299.978 3.84574 297.604 3.87541 296.157 5.35807C294.711 6.84072 294.741 9.2149 296.224 10.661L317.7 31.6074L296.754 53.084C295.308 54.5667 295.338 56.9409 296.82 58.3869C298.303 59.833 300.677 59.8033 302.123 58.3207L325.688 34.1594ZM303.047 35.5408L323.05 35.2908L322.956 27.7914L302.953 28.0414L303.047 35.5408Z" fill="#3E4524"/>
<rect x="279" y="54.5411" width="20" height="5" fill="#3E4524"/>
<rect x="293.385" y="7.54845" width="10.2569" height="27.7651" transform="rotate(-46.8372 293.385 7.54845)" fill="white"/>
<rect x="307.751" y="21.1754" width="10.615" height="27.7651" transform="rotate(-45.9897 307.751 21.1754)" fill="white"/>
<rect x="292.924" y="7.95323" width="11.0096" height="27.7651" transform="rotate(-46.2524 292.924 7.95323)" fill="white"/>
<line x1="292.342" y1="7.17599" x2="323.342" y2="36.176" stroke="black"/>
<defs>
<linearGradient id="paint0_linear_96_2" x1="235.5" y1="43.5411" x2="-24.5" y2="59.5412" gradientUnits="userSpaceOnUse">
<stop stop-color="#3E4524"/>
<stop offset="1" stop-color="#F5F2D0"/>
</linearGradient>
</defs>
</svg>
